<mxfile host="Electron" modified="2023-12-05T05:48:14.488Z" agent="Mozilla/5.0 (Windows NT 10.0; Win64; x64) AppleWebKit/537.36 (KHTML, like Gecko) draw.io/22.1.2 Chrome/114.0.5735.289 Electron/25.9.4 Safari/537.36" etag="icv7NQHC0yAG9yEh860S" version="22.1.2" type="device">
  <diagram id="6TuDyKd1yB-v-Oty1cXT" name="Page-1">
    <mxGraphModel dx="3183" dy="1380" grid="1" gridSize="10" guides="1" tooltips="1" connect="1" arrows="1" fold="1" page="1" pageScale="1" pageWidth="850" pageHeight="1100" math="0" shadow="0">
      <root>
        <mxCell id="0" />
        <mxCell id="1" parent="0" />
        <mxCell id="EmXWq6hltBO1vNTIZp0k-35" style="edgeStyle=orthogonalEdgeStyle;rounded=0;orthogonalLoop=1;jettySize=auto;html=1;exitX=1;exitY=0.5;exitDx=0;exitDy=0;endArrow=block;endFill=1;" parent="1" source="EmXWq6hltBO1vNTIZp0k-7" target="EmXWq6hltBO1vNTIZp0k-8" edge="1">
          <mxGeometry relative="1" as="geometry" />
        </mxCell>
        <mxCell id="EmXWq6hltBO1vNTIZp0k-7" value="&lt;div style=&quot;text-align: left&quot;&gt;&lt;font face=&quot;calibri, sans-serif&quot;&gt;&lt;span style=&quot;font-size: 18px;&quot;&gt;&lt;b&gt;Defining Project Objectives&lt;/b&gt;&lt;/span&gt;&lt;/font&gt;&lt;/div&gt;" style="rounded=1;whiteSpace=wrap;html=1;arcSize=0;fillColor=#1ba1e2;fontColor=#ffffff;strokeWidth=5;strokeColor=#FF0000;" parent="1" vertex="1">
          <mxGeometry x="-280" y="245" width="150" height="80" as="geometry" />
        </mxCell>
        <mxCell id="EmXWq6hltBO1vNTIZp0k-38" style="edgeStyle=orthogonalEdgeStyle;rounded=0;orthogonalLoop=1;jettySize=auto;html=1;exitX=1;exitY=0.5;exitDx=0;exitDy=0;endArrow=block;endFill=1;entryX=0;entryY=0.5;entryDx=0;entryDy=0;" parent="1" source="EmXWq6hltBO1vNTIZp0k-8" target="EmXWq6hltBO1vNTIZp0k-37" edge="1">
          <mxGeometry relative="1" as="geometry" />
        </mxCell>
        <mxCell id="EmXWq6hltBO1vNTIZp0k-8" value="&lt;div style=&quot;text-align: left&quot;&gt;&lt;/div&gt;&lt;div style=&quot;text-align: left;&quot;&gt;&lt;span style=&quot;background-color: initial; font-size: 18px;&quot;&gt;&lt;font face=&quot;calibri, sans-serif&quot;&gt;&lt;b&gt;Project Charter&lt;/b&gt;&lt;/font&gt;&lt;/span&gt;&lt;/div&gt;" style="rounded=1;whiteSpace=wrap;html=1;arcSize=0;fillColor=#1ba1e2;fontColor=#ffffff;strokeWidth=5;strokeColor=#FF0000;" parent="1" vertex="1">
          <mxGeometry x="-50" y="245" width="150" height="80" as="geometry" />
        </mxCell>
        <mxCell id="EmXWq6hltBO1vNTIZp0k-45" style="edgeStyle=orthogonalEdgeStyle;rounded=0;orthogonalLoop=1;jettySize=auto;html=1;exitX=1;exitY=0.5;exitDx=0;exitDy=0;entryX=0;entryY=0.5;entryDx=0;entryDy=0;endArrow=block;endFill=1;" parent="1" source="EmXWq6hltBO1vNTIZp0k-13" target="EmXWq6hltBO1vNTIZp0k-17" edge="1">
          <mxGeometry relative="1" as="geometry" />
        </mxCell>
        <mxCell id="EmXWq6hltBO1vNTIZp0k-13" value="&lt;div&gt;&lt;/div&gt;&lt;font face=&quot;calibri, sans-serif&quot; style=&quot;font-size: 18px&quot;&gt;Defining Scope&lt;br&gt;&lt;/font&gt;" style="rounded=1;whiteSpace=wrap;html=1;arcSize=0;fillColor=#1ba1e2;fontColor=#ffffff;align=center;strokeWidth=5;strokeColor=#0000FF;" parent="1" vertex="1">
          <mxGeometry x="360" y="349" width="150" height="90" as="geometry" />
        </mxCell>
        <mxCell id="EmXWq6hltBO1vNTIZp0k-47" style="edgeStyle=orthogonalEdgeStyle;rounded=0;orthogonalLoop=1;jettySize=auto;html=1;exitX=1;exitY=0.5;exitDx=0;exitDy=0;entryX=0;entryY=0.5;entryDx=0;entryDy=0;endArrow=block;endFill=1;" parent="1" source="EmXWq6hltBO1vNTIZp0k-17" target="EmXWq6hltBO1vNTIZp0k-18" edge="1">
          <mxGeometry relative="1" as="geometry" />
        </mxCell>
        <mxCell id="EmXWq6hltBO1vNTIZp0k-49" style="edgeStyle=orthogonalEdgeStyle;rounded=0;orthogonalLoop=1;jettySize=auto;html=1;exitX=1;exitY=0.5;exitDx=0;exitDy=0;entryX=0;entryY=0.5;entryDx=0;entryDy=0;endArrow=block;endFill=1;" parent="1" source="EmXWq6hltBO1vNTIZp0k-17" target="EmXWq6hltBO1vNTIZp0k-20" edge="1">
          <mxGeometry relative="1" as="geometry" />
        </mxCell>
        <mxCell id="EmXWq6hltBO1vNTIZp0k-17" value="&lt;div style=&quot;text-align: left&quot;&gt;&lt;font face=&quot;calibri, sans-serif&quot;&gt;&lt;span style=&quot;font-size: 18px&quot;&gt;&lt;b&gt;&amp;nbsp;Application Development&lt;/b&gt;&lt;/span&gt;&lt;/font&gt;&lt;/div&gt;" style="rounded=1;whiteSpace=wrap;html=1;arcSize=0;fillColor=#1ba1e2;fontColor=#ffffff;strokeWidth=5;strokeColor=#FF0000;" parent="1" vertex="1">
          <mxGeometry x="550" y="570" width="150" height="80" as="geometry" />
        </mxCell>
        <mxCell id="EmXWq6hltBO1vNTIZp0k-18" value="&lt;div&gt;&lt;/div&gt;&lt;font face=&quot;calibri, sans-serif&quot; style=&quot;font-size: 18px&quot;&gt;Feedback system&lt;br&gt;&lt;/font&gt;" style="rounded=1;whiteSpace=wrap;html=1;arcSize=0;fillColor=#1ba1e2;fontColor=#ffffff;align=center;strokeWidth=5;strokeColor=#0000FF;" parent="1" vertex="1">
          <mxGeometry x="810" y="960" width="150" height="80" as="geometry" />
        </mxCell>
        <mxCell id="EmXWq6hltBO1vNTIZp0k-52" style="edgeStyle=orthogonalEdgeStyle;rounded=0;orthogonalLoop=1;jettySize=auto;html=1;exitX=1;exitY=0.5;exitDx=0;exitDy=0;entryX=0;entryY=0.5;entryDx=0;entryDy=0;endArrow=block;endFill=1;" parent="1" source="EmXWq6hltBO1vNTIZp0k-20" target="EmXWq6hltBO1vNTIZp0k-51" edge="1">
          <mxGeometry relative="1" as="geometry" />
        </mxCell>
        <mxCell id="EmXWq6hltBO1vNTIZp0k-20" value="&lt;div style=&quot;text-align: left&quot;&gt;&lt;font face=&quot;calibri, sans-serif&quot;&gt;&lt;span style=&quot;font-size: 18px;&quot;&gt;&lt;b&gt;Integration of front-end &amp;amp; back-end&lt;/b&gt;&lt;/span&gt;&lt;/font&gt;&lt;/div&gt;" style="rounded=1;whiteSpace=wrap;html=1;arcSize=0;fillColor=#1ba1e2;fontColor=#ffffff;strokeWidth=5;strokeColor=#FF0000;" parent="1" vertex="1">
          <mxGeometry x="810" y="1080" width="150" height="80" as="geometry" />
        </mxCell>
        <mxCell id="EmXWq6hltBO1vNTIZp0k-33" value="&lt;div style=&quot;text-align: left&quot;&gt;&lt;font face=&quot;calibri, sans-serif&quot;&gt;&lt;span style=&quot;font-size: 18px;&quot;&gt;&lt;b&gt;Maintanence&lt;/b&gt;&lt;/span&gt;&lt;/font&gt;&lt;/div&gt;" style="shape=parallelogram;html=1;strokeWidth=5;perimeter=parallelogramPerimeter;whiteSpace=wrap;rounded=1;arcSize=0;size=0;fillColor=#1ba1e2;fontColor=#ffffff;" parent="1" vertex="1">
          <mxGeometry x="-525" y="1450" width="200" height="70" as="geometry" />
        </mxCell>
        <mxCell id="EmXWq6hltBO1vNTIZp0k-34" value="&lt;div style=&quot;text-align: left&quot;&gt;&lt;font face=&quot;calibri, sans-serif&quot;&gt;&lt;span style=&quot;font-size: 18px;&quot;&gt;&lt;b&gt;Project Initiliazation&lt;/b&gt;&lt;/span&gt;&lt;/font&gt;&lt;/div&gt;" style="shape=parallelogram;html=1;strokeWidth=5;perimeter=parallelogramPerimeter;whiteSpace=wrap;rounded=1;arcSize=0;size=0;fillColor=#1ba1e2;fontColor=#ffffff;" parent="1" vertex="1">
          <mxGeometry x="-540" y="250" width="200" height="70" as="geometry" />
        </mxCell>
        <mxCell id="EmXWq6hltBO1vNTIZp0k-36" value="&lt;div style=&quot;text-align: left&quot;&gt;&lt;div&gt;&lt;font face=&quot;calibri, sans-serif&quot;&gt;&lt;span style=&quot;font-size: 18px;&quot;&gt;&lt;b&gt;Project Planning&lt;/b&gt;&lt;/span&gt;&lt;/font&gt;&lt;/div&gt;&lt;/div&gt;" style="shape=parallelogram;html=1;strokeWidth=5;perimeter=parallelogramPerimeter;whiteSpace=wrap;rounded=1;arcSize=0;size=0;fillColor=#1ba1e2;fontColor=#ffffff;" parent="1" vertex="1">
          <mxGeometry x="-540" y="444" width="200" height="70" as="geometry" />
        </mxCell>
        <mxCell id="EmXWq6hltBO1vNTIZp0k-40" style="edgeStyle=orthogonalEdgeStyle;rounded=0;orthogonalLoop=1;jettySize=auto;html=1;exitX=1;exitY=0.5;exitDx=0;exitDy=0;entryX=0;entryY=0.5;entryDx=0;entryDy=0;endArrow=block;endFill=1;" parent="1" source="EmXWq6hltBO1vNTIZp0k-37" target="EmXWq6hltBO1vNTIZp0k-13" edge="1">
          <mxGeometry relative="1" as="geometry" />
        </mxCell>
        <mxCell id="EmXWq6hltBO1vNTIZp0k-41" style="edgeStyle=orthogonalEdgeStyle;rounded=0;orthogonalLoop=1;jettySize=auto;html=1;exitX=1;exitY=0.5;exitDx=0;exitDy=0;entryX=0;entryY=0.5;entryDx=0;entryDy=0;endArrow=block;endFill=1;" parent="1" source="EmXWq6hltBO1vNTIZp0k-37" target="EmXWq6hltBO1vNTIZp0k-39" edge="1">
          <mxGeometry relative="1" as="geometry" />
        </mxCell>
        <mxCell id="EmXWq6hltBO1vNTIZp0k-37" value="&lt;div style=&quot;text-align: left&quot;&gt;&lt;font face=&quot;calibri, sans-serif&quot;&gt;&lt;span style=&quot;font-size: 18px;&quot;&gt;&lt;b&gt;Meetings&lt;/b&gt;&lt;/span&gt;&lt;/font&gt;&lt;/div&gt;" style="rounded=1;whiteSpace=wrap;html=1;arcSize=0;fillColor=#1ba1e2;fontColor=#ffffff;strokeWidth=5;strokeColor=#FF0000;" parent="1" vertex="1">
          <mxGeometry x="140" y="354" width="150" height="80" as="geometry" />
        </mxCell>
        <mxCell id="EmXWq6hltBO1vNTIZp0k-44" style="edgeStyle=orthogonalEdgeStyle;rounded=0;orthogonalLoop=1;jettySize=auto;html=1;exitX=1;exitY=0.5;exitDx=0;exitDy=0;entryX=0;entryY=0.5;entryDx=0;entryDy=0;endArrow=block;endFill=1;" parent="1" source="EmXWq6hltBO1vNTIZp0k-39" target="EmXWq6hltBO1vNTIZp0k-17" edge="1">
          <mxGeometry relative="1" as="geometry" />
        </mxCell>
        <mxCell id="EmXWq6hltBO1vNTIZp0k-39" value="&lt;div&gt;&lt;/div&gt;&lt;font face=&quot;calibri, sans-serif&quot; style=&quot;font-size: 18px&quot;&gt;&lt;b&gt;Budget Session&lt;/b&gt;&lt;br&gt;&lt;/font&gt;" style="rounded=1;whiteSpace=wrap;html=1;arcSize=0;fillColor=#1ba1e2;fontColor=#ffffff;align=center;strokeWidth=5;strokeColor=#FF0000;" parent="1" vertex="1">
          <mxGeometry x="360" y="480" width="150" height="90" as="geometry" />
        </mxCell>
        <mxCell id="EmXWq6hltBO1vNTIZp0k-42" value="&lt;div style=&quot;text-align: left&quot;&gt;&lt;div&gt;&lt;font face=&quot;calibri, sans-serif&quot;&gt;&lt;span style=&quot;font-size: 18px;&quot;&gt;&lt;b&gt;Project Execution&lt;/b&gt;&lt;/span&gt;&lt;/font&gt;&lt;/div&gt;&lt;/div&gt;" style="shape=parallelogram;html=1;strokeWidth=5;perimeter=parallelogramPerimeter;whiteSpace=wrap;rounded=1;arcSize=0;size=0;fillColor=#1ba1e2;fontColor=#ffffff;" parent="1" vertex="1">
          <mxGeometry x="-550" y="800" width="200" height="70" as="geometry" />
        </mxCell>
        <mxCell id="EmXWq6hltBO1vNTIZp0k-50" value="&lt;div style=&quot;text-align: left&quot;&gt;&lt;font face=&quot;calibri, sans-serif&quot;&gt;&lt;span style=&quot;font-size: 18px;&quot;&gt;&lt;b&gt;Project Close down&lt;/b&gt;&lt;/span&gt;&lt;/font&gt;&lt;/div&gt;" style="shape=parallelogram;html=1;strokeWidth=5;perimeter=parallelogramPerimeter;whiteSpace=wrap;rounded=1;arcSize=0;size=0;fillColor=#1ba1e2;fontColor=#ffffff;" parent="1" vertex="1">
          <mxGeometry x="-530" y="1280" width="200" height="70" as="geometry" />
        </mxCell>
        <mxCell id="EmXWq6hltBO1vNTIZp0k-57" style="edgeStyle=orthogonalEdgeStyle;rounded=0;orthogonalLoop=1;jettySize=auto;html=1;exitX=1;exitY=0.5;exitDx=0;exitDy=0;entryX=0;entryY=0.5;entryDx=0;entryDy=0;endArrow=block;endFill=1;" parent="1" source="EmXWq6hltBO1vNTIZp0k-51" target="EmXWq6hltBO1vNTIZp0k-55" edge="1">
          <mxGeometry relative="1" as="geometry" />
        </mxCell>
        <mxCell id="EmXWq6hltBO1vNTIZp0k-51" value="&lt;div&gt;&lt;font face=&quot;calibri, sans-serif&quot;&gt;&lt;span style=&quot;font-size: 18px;&quot;&gt;&lt;b&gt;User Training&lt;/b&gt;&lt;/span&gt;&lt;/font&gt;&lt;/div&gt;&lt;font face=&quot;calibri, sans-serif&quot; style=&quot;font-size: 18px&quot;&gt;&lt;br&gt;&lt;/font&gt;" style="rounded=1;whiteSpace=wrap;html=1;arcSize=0;fillColor=#1ba1e2;fontColor=#ffffff;align=center;strokeWidth=5;strokeColor=#FF0000;" parent="1" vertex="1">
          <mxGeometry x="1010" y="1080" width="150" height="80" as="geometry" />
        </mxCell>
        <mxCell id="ClVNMsGDq24odf_26x4K-15" style="edgeStyle=orthogonalEdgeStyle;rounded=0;orthogonalLoop=1;jettySize=auto;html=1;entryX=0;entryY=0.5;entryDx=0;entryDy=0;" edge="1" parent="1" source="EmXWq6hltBO1vNTIZp0k-55" target="ClVNMsGDq24odf_26x4K-10">
          <mxGeometry relative="1" as="geometry" />
        </mxCell>
        <mxCell id="EmXWq6hltBO1vNTIZp0k-55" value="UAT &amp;amp; Final project view" style="rounded=1;whiteSpace=wrap;html=1;arcSize=0;fillColor=#1ba1e2;fontColor=#ffffff;align=center;strokeWidth=5;strokeColor=#FF0000;" parent="1" vertex="1">
          <mxGeometry x="1210" y="1280" width="150" height="80" as="geometry" />
        </mxCell>
        <mxCell id="EmXWq6hltBO1vNTIZp0k-58" value="" style="rounded=0;whiteSpace=wrap;html=1;strokeWidth=2;fillColor=none;" parent="1" vertex="1">
          <mxGeometry x="-580" y="1190" width="50" height="30" as="geometry" />
        </mxCell>
        <mxCell id="EmXWq6hltBO1vNTIZp0k-60" value="" style="endArrow=none;html=1;exitX=0.002;exitY=0.099;exitDx=0;exitDy=0;exitPerimeter=0;entryX=1;entryY=0.103;entryDx=0;entryDy=0;entryPerimeter=0;" parent="1" source="EmXWq6hltBO1vNTIZp0k-58" target="EmXWq6hltBO1vNTIZp0k-58" edge="1">
          <mxGeometry width="50" height="50" relative="1" as="geometry">
            <mxPoint x="-450" y="130" as="sourcePoint" />
            <mxPoint x="-400" y="80" as="targetPoint" />
          </mxGeometry>
        </mxCell>
        <mxCell id="EmXWq6hltBO1vNTIZp0k-61" value="&lt;p class=&quot;MsoNormal&quot; align=&quot;center&quot; style=&quot;font-size: 22px&quot;&gt;&lt;b&gt;&lt;span style=&quot;font-family: &amp;#34;calibri&amp;#34; , sans-serif&quot;&gt;Mobile Application Passport Automation Syste&lt;/span&gt;&lt;/b&gt;&lt;b&gt;&lt;span style=&quot;font-family: &amp;#34;calibri&amp;#34; , sans-serif&quot;&gt;m&lt;/span&gt;&lt;/b&gt;&lt;span style=&quot;font-family: &amp;#34;calibri&amp;#34; , sans-serif&quot;&gt;&lt;/span&gt;&lt;/p&gt;" style="rounded=1;whiteSpace=wrap;html=1;arcSize=0;fillColor=#1ba1e2;fontColor=#ffffff;strokeColor=#00FFFF;strokeWidth=5;" parent="1" vertex="1">
          <mxGeometry y="60" width="820" height="80" as="geometry" />
        </mxCell>
        <mxCell id="ClVNMsGDq24odf_26x4K-3" value="&lt;div&gt;&lt;/div&gt;&lt;font face=&quot;calibri, sans-serif&quot; style=&quot;font-size: 18px&quot;&gt;Designing Prototype&lt;br&gt;&lt;/font&gt;" style="rounded=1;whiteSpace=wrap;html=1;arcSize=0;fillColor=#1ba1e2;fontColor=#ffffff;align=center;strokeWidth=5;strokeColor=#0000FF;" vertex="1" parent="1">
          <mxGeometry x="800" y="840" width="150" height="80" as="geometry" />
        </mxCell>
        <mxCell id="ClVNMsGDq24odf_26x4K-4" value="&lt;div&gt;&lt;/div&gt;&lt;font face=&quot;calibri, sans-serif&quot; style=&quot;font-size: 18px&quot;&gt;Back-end Creation&lt;br&gt;&lt;/font&gt;" style="rounded=1;whiteSpace=wrap;html=1;arcSize=0;fillColor=#1ba1e2;fontColor=#ffffff;align=center;strokeWidth=5;strokeColor=#0000FF;" vertex="1" parent="1">
          <mxGeometry x="800" y="600" width="150" height="80" as="geometry" />
        </mxCell>
        <mxCell id="ClVNMsGDq24odf_26x4K-5" value="&lt;div&gt;&lt;/div&gt;&lt;font face=&quot;calibri, sans-serif&quot; style=&quot;font-size: 18px&quot;&gt;Front-end creation&lt;br&gt;&lt;/font&gt;" style="rounded=1;whiteSpace=wrap;html=1;arcSize=0;fillColor=#1ba1e2;fontColor=#ffffff;align=center;strokeWidth=5;strokeColor=#0000FF;" vertex="1" parent="1">
          <mxGeometry x="800" y="720" width="150" height="80" as="geometry" />
        </mxCell>
        <mxCell id="ClVNMsGDq24odf_26x4K-16" style="edgeStyle=orthogonalEdgeStyle;rounded=0;orthogonalLoop=1;jettySize=auto;html=1;entryX=0;entryY=0.5;entryDx=0;entryDy=0;" edge="1" parent="1" source="ClVNMsGDq24odf_26x4K-10" target="ClVNMsGDq24odf_26x4K-11">
          <mxGeometry relative="1" as="geometry" />
        </mxCell>
        <mxCell id="ClVNMsGDq24odf_26x4K-10" value="Final Sign off" style="rounded=1;whiteSpace=wrap;html=1;arcSize=0;fillColor=#1ba1e2;fontColor=#ffffff;align=center;strokeWidth=5;strokeColor=#FF0000;" vertex="1" parent="1">
          <mxGeometry x="1420" y="1280" width="150" height="80" as="geometry" />
        </mxCell>
        <mxCell id="ClVNMsGDq24odf_26x4K-17" style="edgeStyle=orthogonalEdgeStyle;rounded=0;orthogonalLoop=1;jettySize=auto;html=1;" edge="1" parent="1" source="ClVNMsGDq24odf_26x4K-11" target="ClVNMsGDq24odf_26x4K-12">
          <mxGeometry relative="1" as="geometry" />
        </mxCell>
        <mxCell id="ClVNMsGDq24odf_26x4K-11" value="Feedback &amp;amp; Evaluation" style="rounded=1;whiteSpace=wrap;html=1;arcSize=0;fillColor=#1ba1e2;fontColor=#ffffff;align=center;strokeWidth=5;strokeColor=#FF0000;" vertex="1" parent="1">
          <mxGeometry x="1620" y="1280" width="150" height="80" as="geometry" />
        </mxCell>
        <mxCell id="ClVNMsGDq24odf_26x4K-12" value="Software Maintanence" style="rounded=1;whiteSpace=wrap;html=1;arcSize=0;fillColor=#1ba1e2;fontColor=#ffffff;align=center;strokeWidth=5;strokeColor=#FF0000;" vertex="1" parent="1">
          <mxGeometry x="1620" y="1430" width="150" height="80" as="geometry" />
        </mxCell>
        <mxCell id="ClVNMsGDq24odf_26x4K-18" value="" style="endArrow=classic;html=1;rounded=0;" edge="1" parent="1">
          <mxGeometry width="50" height="50" relative="1" as="geometry">
            <mxPoint x="750" y="760" as="sourcePoint" />
            <mxPoint x="800" y="760" as="targetPoint" />
          </mxGeometry>
        </mxCell>
        <mxCell id="ClVNMsGDq24odf_26x4K-19" value="" style="endArrow=classic;html=1;rounded=0;" edge="1" parent="1">
          <mxGeometry width="50" height="50" relative="1" as="geometry">
            <mxPoint x="750" y="639.76" as="sourcePoint" />
            <mxPoint x="800" y="639.76" as="targetPoint" />
          </mxGeometry>
        </mxCell>
        <mxCell id="ClVNMsGDq24odf_26x4K-20" value="" style="endArrow=classic;html=1;rounded=0;" edge="1" parent="1">
          <mxGeometry width="50" height="50" relative="1" as="geometry">
            <mxPoint x="750" y="879.76" as="sourcePoint" />
            <mxPoint x="800" y="879.76" as="targetPoint" />
          </mxGeometry>
        </mxCell>
      </root>
    </mxGraphModel>
  </diagram>
</mxfile>
